<?xml version="1.0" encoding="utf-8"?>
<!-- Generator: Adobe Illustrator 19.0.0, SVG Export Plug-In . SVG Version: 6.00 Build 0)  -->
<svg version="1.1" id="Layer_1" xmlns="http://www.w3.org/2000/svg" xmlns:xlink="http://www.w3.org/1999/xlink" x="0px" y="0px"
	 viewBox="0 0 600 500" style="enable-background:new 0 0 600 500;" xml:space="preserve">
<style type="text/css">
	.st0{fill:#2674A1;}
	.st1{fill:#21638A;}
	.st2{fill:url(#SVGID_1_);}
	.st3{fill:url(#SVGID_2_);}
	.st4{fill:url(#SVGID_3_);}
	.st5{fill:#2980BA;}
</style>
<polygon class="st0" points="407.6,156.9 288.8,275.7 23.3,10.2 "/>
<polygon class="st1" points="23.3,487.4 153.4,487.4 153.4,140.1 23.3,10.2 "/>
<linearGradient id="SVGID_1_" gradientUnits="userSpaceOnUse" x1="75.6367" y1="261.5067" x2="180.7831" y2="156.3603">
	<stop  offset="0" style="stop-color:#286886;stop-opacity:0"/>
	<stop  offset="1" style="stop-color:#234D79"/>
</linearGradient>
<polygon class="st2" points="23.3,487.4 153.4,487.4 153.4,140.1 23.3,10.2 "/>
<polygon class="st1" points="554.8,487 424.6,487 424.6,139.7 554.8,9.7 "/>
<linearGradient id="SVGID_2_" gradientUnits="userSpaceOnUse" x1="291.3717" y1="261.0522" x2="396.5182" y2="155.9058" gradientTransform="matrix(-1 0 0 1 793.7565 0)">
	<stop  offset="0" style="stop-color:#286886;stop-opacity:0"/>
	<stop  offset="1" style="stop-color:#0D3239"/>
</linearGradient>
<polygon class="st3" points="554.8,487 424.6,487 424.6,139.7 554.8,9.7 "/>
<linearGradient id="SVGID_3_" gradientUnits="userSpaceOnUse" x1="194.3013" y1="60.199" x2="308.4656" y2="185.1637">
	<stop  offset="0" style="stop-color:#184F68;stop-opacity:0"/>
	<stop  offset="0.138" style="stop-color:#1A526C;stop-opacity:0.138"/>
	<stop  offset="0.3956" style="stop-color:#1B5271;stop-opacity:0.3956"/>
	<stop  offset="0.6336" style="stop-color:#195173;stop-opacity:0.6336"/>
	<stop  offset="0.8426" style="stop-color:#165075;stop-opacity:0.8426"/>
	<stop  offset="1" style="stop-color:#154F75"/>
</linearGradient>
<polygon class="st4" points="407.6,156.7 288.8,275.5 23.3,10 "/>
<polygon class="st5" points="170.5,157.5 288.8,275.7 554.8,9.7 "/>
<g>
</g>
<g>
</g>
<g>
</g>
<g>
</g>
<g>
</g>
<g>
</g>
</svg>
