<?xml version="1.0" encoding="utf-8"?>
<!-- Generator: Adobe Illustrator 19.0.0, SVG Export Plug-In . SVG Version: 6.00 Build 0)  -->
<svg version="1.1" id="Layer_1" xmlns="http://www.w3.org/2000/svg" xmlns:xlink="http://www.w3.org/1999/xlink" x="0px" y="0px"
	 viewBox="0 0 600 500" style="enable-background:new 0 0 600 500;" xml:space="preserve">
<style type="text/css">
	.st0{fill:#D3D3D3;}
	.st1{fill:#C1C1C0;}
	.st2{fill:url(#SVGID_1_);}
	.st3{fill:url(#SVGID_2_);}
	.st4{fill:url(#SVGID_3_);}
	.st5{fill:#E2E2E2;}
</style>
<polygon class="st0" points="407.6,156.9 288.8,275.7 23.3,10.2 "/>
<polygon class="st1" points="23.3,487.4 153.4,487.4 153.4,140.1 23.3,10.2 "/>
<polygon class="st1" points="554.8,487 424.6,487 424.6,139.7 554.8,9.7 "/>
<linearGradient id="SVGID_1_" gradientUnits="userSpaceOnUse" x1="291.4134" y1="261.1355" x2="396.5598" y2="155.9891" gradientTransform="matrix(-1 0 0 1 793.7565 0)">
	<stop  offset="0" style="stop-color:#A7A9AC;stop-opacity:0"/>
	<stop  offset="1" style="stop-color:#939598"/>
</linearGradient>
<polygon class="st2" points="554.7,487.1 424.6,487.1 424.6,139.8 554.7,9.8 "/>
<linearGradient id="SVGID_2_" gradientUnits="userSpaceOnUse" x1="714.1009" y1="261.5314" x2="819.2473" y2="156.3849" gradientTransform="matrix(1 0 0 1 -638.4521 0)">
	<stop  offset="0" style="stop-color:#A7A9AC;stop-opacity:0"/>
	<stop  offset="1" style="stop-color:#939598"/>
</linearGradient>
<polygon class="st3" points="23.3,487.5 153.4,487.5 153.4,140.2 23.3,10.2 "/>
<linearGradient id="SVGID_3_" gradientUnits="userSpaceOnUse" x1="194.468" y1="59.699" x2="308.6322" y2="184.6637">
	<stop  offset="0" style="stop-color:#BCBEC0;stop-opacity:0"/>
	<stop  offset="0.1438" style="stop-color:#B1B3B6;stop-opacity:0.1438"/>
	<stop  offset="0.4381" style="stop-color:#A0A2A5;stop-opacity:0.4381"/>
	<stop  offset="0.7265" style="stop-color:#96999B;stop-opacity:0.7265"/>
	<stop  offset="1" style="stop-color:#939598"/>
</linearGradient>
<polygon class="st4" points="407.8,156.2 289,275 23.5,9.5 "/>
<polygon class="st5" points="170.5,157.5 288.8,275.7 554.8,9.7 "/>
<g>
</g>
<g>
</g>
<g>
</g>
<g>
</g>
<g>
</g>
<g>
</g>
</svg>
